<?xml version="1.0" standalone="no"?><!DOCTYPE svg PUBLIC "-//W3C//DTD SVG 1.1//EN" "http://www.w3.org/Graphics/SVG/1.1/DTD/svg11.dtd"><svg t="1618828192621" class="icon" viewBox="0 0 1024 1024" version="1.1" xmlns="http://www.w3.org/2000/svg" p-id="3705" xmlns:xlink="http://www.w3.org/1999/xlink" width="48" height="48"><defs><style type="text/css"></style></defs><path d="M926.063457 195.394179c-45.726437-13.043061-88.846514-18.361183-128.733966-18.361183-172.867116 0-284.708344 99.638301-284.708344 99.638301l-1.157359-0.049119-1.125637 0.049119c0 0-111.833041-99.638301-284.691971-99.638301-39.857776 0-82.9799 5.318122-128.73192 18.361183-13.043061 3.713578-22.100344 15.903202-22.100344 29.903054l0 521.15859c0 17.359366 13.646811 31.006178 29.903054 31.006178 1.429559 0 2.930749-0.103354 4.437056-0.303922 25.563212-3.914146 63.667042-8.226359 108.293425-8.226359 81.120552 0 183.895287 14.098089 272.51872 70.039169 6.268774 3.90903 13.320377 5.915733 20.37198 5.915733 0.375553 0 0.7552-0.049119 1.12973-0.049119 0.401136 0 0.773619 0.049119 1.153266 0.049119 7.046486 0 14.098089-2.006703 20.344351-5.915733 88.663342-55.942103 191.44217-70.039169 272.541233-70.039169 44.675502 0 82.756819 4.311189 108.315938 8.226359 1.506307 0.201591 2.962471 0.303922 4.442172 0.303922 16.229636 0 29.898961-13.646811 29.898961-31.006178L948.163801 225.298256C948.190407 211.29738 939.106518 199.107757 926.063457 195.394179L926.063457 195.394179 926.063457 195.394179 926.063457 195.394179zM494.979348 806.061362c-75.726705-44.603871-171.352623-68.131727-277.510408-68.131727-47.182602 0-87.345324 4.666276-112.681362 8.527211L104.787578 225.298256c0 0 0.054235-0.049119 0.076748-0.049119 40.108486-11.43954 80.749092-17.207917 120.781854-17.207917 36.450167 0 72.970942 4.76349 108.593254 14.196327 28.647457 7.574512 56.767911 18.20871 83.632769 31.556717 45.453215 22.574135 71.969125 45.555545 72.9208 46.404889l4.539386 4.066619L494.979348 806.061362 494.979348 806.061362 494.979348 806.061362 494.979348 806.061362zM918.211629 746.456846c-25.358551-3.860934-65.494667-8.527211-112.703875-8.527211-106.157785 0-201.765283 23.526833-277.532921 68.131727l-0.38067-501.796614 4.568039-4.066619c0.956791-0.848321 27.471678-23.830755 72.934103-46.404889 26.874067-13.346983 55.021128-23.982204 83.641979-31.556717 35.622312-9.432837 72.143087-14.196327 108.59223-14.196327 40.032762 0 80.69588 5.768377 120.782877 17.207917 0.027629 0 0.071631 0.049119 0.098237 0.049119L918.211629 746.456846 918.211629 746.456846 918.211629 746.456846 918.211629 746.456846zM227.930199 177.032996c2.054799 0 4.060479 0 6.121418 0.049119l-0.026606-0.049119L227.930199 177.032996 227.930199 177.032996 227.930199 177.032996 227.930199 177.032996zM227.930199 177.032996" p-id="3706"></path></svg>